<?xml version="1.0" encoding="utf-8"?>
<!-- Generator: Adobe Illustrator 23.0.1, SVG Export Plug-In . SVG Version: 6.00 Build 0)  -->
<svg version="1.1" id="Layer_1" xmlns="http://www.w3.org/2000/svg" xmlns:xlink="http://www.w3.org/1999/xlink" x="0px" y="0px"
	 viewBox="0 0 500 500" style="enable-background:new 0 0 500 500;" xml:space="preserve">
<style type="text/css">
	.st0{fill:none;}
	.st1{fill:#6E74DC;}
	.st2{fill:#C2185B;}
</style>
<path class="st0" d="M28,28h444v444H28V28z"/>
<path class="st1" d="M194.5,342.5l55.5-54.4c-7.2-0.7-12.6-1.1-18.5-1.1c-49.4,0-148,24.8-148,74v37H250L194.5,342.5z M231.5,250
	c40.9,0,74-33.1,74-74s-33.1-74-74-74s-74,33.1-74,74S190.6,250,231.5,250"/>
<path class="st2" d="M314.2,407.3L250,342.5l25.9-26.1l38.3,38.5l94.9-95.6l25.9,26.1C435,285.3,314.2,407.3,314.2,407.3z"/>
</svg>
