<?xml version="1.0" encoding="utf-8"?>
<!-- Generator: Adobe Illustrator 23.0.1, SVG Export Plug-In . SVG Version: 6.00 Build 0)  -->
<svg version="1.1" id="Layer_1" xmlns="http://www.w3.org/2000/svg" xmlns:xlink="http://www.w3.org/1999/xlink" x="0px" y="0px"
	 viewBox="0 0 687.1 687.1" style="enable-background:new 0 0 687.1 687.1;" xml:space="preserve">
<style type="text/css">
	.st0{fill:#6E74DC;}
	.st1{fill:#C2185B;}
</style>
<g>
	<rect x="-1220.3" y="534.2" class="st0" width="517.4" height="81.7"/>
	<g>
		<rect x="-1165.8" y="289.1" class="st1" width="81.7" height="190.6"/>
		<rect x="-1002.4" y="289.1" class="st1" width="81.7" height="190.6"/>
		<rect x="-839" y="289.1" class="st1" width="81.7" height="190.6"/>
	</g>
	<polygon class="st0" points="-961.6,44 -1220.3,180.2 -1220.3,234.6 -702.9,234.6 -702.9,180.2 	"/>
</g>
<g>
	<rect x="116.9" y="116.8" class="st1" width="453.3" height="56.7"/>
	<path class="st0" d="M570.2,201.8H116.9L88.6,343.5v56.7h28.3v170h283.3v-170h113.3v170h56.7v-170h28.3v-56.7L570.2,201.8z
		 M343.5,513.5h-170V400.1h170V513.5z"/>
</g>
<g>
	<path class="st0" d="M-2124.6,477.4l80.3-78.7c-10.4-1.1-18.2-1.6-26.8-1.6c-71.5,0-214.1,35.9-214.1,107.1v53.5h240.9
		L-2124.6,477.4z M-2071.1,343.6c59.1,0,107.1-47.9,107.1-107.1s-47.9-107.1-107.1-107.1c-59.2,0-107.1,47.9-107.1,107.1
		S-2130.2,343.6-2071.1,343.6"/>
	<path class="st1" d="M-1951.4,571l-92.9-93.7l37.5-37.7l55.4,55.7l137.3-138.4l37.5,37.7C-1776.7,394.7-1951.4,571-1951.4,571z"/>
</g>
</svg>
