<?xml version="1.0" encoding="utf-8"?>
<!-- Generator: Adobe Illustrator 23.0.1, SVG Export Plug-In . SVG Version: 6.00 Build 0)  -->
<svg version="1.1" id="Layer_1" xmlns="http://www.w3.org/2000/svg" xmlns:xlink="http://www.w3.org/1999/xlink" x="0px" y="0px"
	 viewBox="0 0 687.1 687.1" style="enable-background:new 0 0 687.1 687.1;" xml:space="preserve">
<style type="text/css">
	.st0{fill:none;}
	.st1{fill:#6E74DC;}
	.st2{fill:#C2185B;}
</style>
<g>
	<path class="st0" d="M32.8,16.8h653.5v653.5H32.8V16.8z"/>
	<rect x="87.2" y="534.2" class="st1" width="517.4" height="81.7"/>
	<g>
		<rect x="141.7" y="289.1" class="st2" width="81.7" height="190.6"/>
		<rect x="305.1" y="289.1" class="st2" width="81.7" height="190.6"/>
		<rect x="468.5" y="289.1" class="st2" width="81.7" height="190.6"/>
	</g>
	<polygon class="st1" points="345.9,44 87.2,180.2 87.2,234.6 604.6,234.6 604.6,180.2 	"/>
</g>
<g>
	<path class="st0" d="M1312.8,3.6h680v680h-680V3.6z"/>
	<rect x="1426.2" y="116.9" class="st2" width="453.3" height="56.7"/>
	<path class="st1" d="M1879.5,201.9h-453.3l-28.3,141.7v56.7h28.3v170h283.3v-170h113.3v170h56.7v-170h28.3v-56.7L1879.5,201.9z
		 M1652.8,513.6h-170V400.2h170V513.6z"/>
</g>
<g>
	<path class="st0" d="M-1060.2,22.4h642.3v642.3h-642.3V22.4z"/>
	<path class="st1" d="M-819.3,477.4l80.3-78.7c-10.4-1.1-18.2-1.6-26.8-1.6c-71.5,0-214.1,35.9-214.1,107.1v53.5H-739L-819.3,477.4z
		 M-765.8,343.6c59.1,0,107.1-47.9,107.1-107.1s-47.9-107.1-107.1-107.1s-107.1,47.9-107.1,107.1S-824.9,343.6-765.8,343.6"/>
	<path class="st2" d="M-646.1,571l-92.9-93.7l37.5-37.7l55.4,55.7l137.3-138.4l37.5,37.7C-471.4,394.7-646.1,571-646.1,571z"/>
</g>
</svg>
